<svg width="114" height="30" viewBox="0 0 114 30" fill="none" xmlns="http://www.w3.org/2000/svg">
<path d="M91.9511 7.38999C91.9526 8.85382 91.5199 10.2852 90.7076 11.503C89.8953 12.7208 88.74 13.6702 87.3879 14.2312C86.0358 14.7921 84.5477 14.9392 83.1119 14.654C81.6761 14.3688 80.3572 13.6641 79.3221 12.629C78.287 11.5939 77.5822 10.275 77.297 8.83922C77.0118 7.40343 77.159 5.9153 77.7199 4.56319C78.2808 3.21108 79.2303 2.05576 80.4481 1.24347C81.6659 0.431185 83.0973 -0.00156221 84.5611 4.2376e-06C86.5204 0.00210087 88.3989 0.781359 89.7843 2.1668C91.1697 3.55223 91.949 5.43068 91.9511 7.38999Z" fill="#FF0042"/>
<path d="M91.9511 22.1778C91.9526 23.6417 91.5199 25.0731 90.7076 26.2909C89.8953 27.5087 88.74 28.4581 87.3879 29.019C86.0358 29.5799 84.5477 29.7271 83.1119 29.4419C81.6761 29.1567 80.3572 28.4519 79.3221 27.4169C78.287 26.3818 77.5822 25.0629 77.297 23.6271C77.0118 22.1913 77.159 20.7031 77.7199 19.351C78.2808 17.9989 79.2303 16.8436 80.4481 16.0313C81.6659 15.219 83.0973 14.7863 84.5611 14.7878C86.521 14.7878 88.4007 15.5664 89.7866 16.9523C91.1725 18.3382 91.9511 20.2179 91.9511 22.1778Z" fill="#FF0042"/>
<path fill-rule="evenodd" clip-rule="evenodd" d="M98.6045 29.5678H91.9512L98.6837 0H105.337L98.6045 29.5678Z" fill="white"/>
<path fill-rule="evenodd" clip-rule="evenodd" d="M107.23 29.5678H100.576L107.317 0H113.962L107.23 29.5678Z" fill="white"/>
<path fill-rule="evenodd" clip-rule="evenodd" d="M21.8932 26.3441C19.5724 26.3441 18.622 24.3956 18.622 22.2174C18.622 20.0393 19.5724 18.0749 21.8932 18.0749C24.2139 18.0749 25.1644 20.0234 25.1644 22.2174C25.1644 24.4115 24.2139 26.3441 21.8932 26.3441ZM21.8932 29.8926C26.701 29.8926 30.3683 27.0807 30.3683 22.2174C30.3683 17.3542 26.701 14.5186 21.8932 14.5186C17.0853 14.5186 13.4102 17.3383 13.4102 22.2174C13.4102 27.0966 17.0774 29.8926 21.8932 29.8926Z" fill="#8BB7C6"/>
<path fill-rule="evenodd" clip-rule="evenodd" d="M29.9082 18.4076H32.7913V24.3956C32.7913 27.8965 33.8844 29.8925 38.3833 29.8925C39.4445 29.8734 40.5032 29.7808 41.5516 29.6153L41.3852 26.3124C40.8795 26.4216 40.3655 26.4879 39.8486 26.5104C38.2645 26.5104 37.8368 25.6075 37.8368 23.8332V18.4076H41.3615V14.8591H37.8289V9.77405L32.8705 11.5562V14.8591H29.9082V18.4076Z" fill="#8BB7C6"/>
<path fill-rule="evenodd" clip-rule="evenodd" d="M58.9775 29.5599H64.0151V22.2808H64.0705L68.1021 29.5599H74.2011L68.712 21.5996L73.7813 14.8591H68.2685L64.0705 21.0373H64.0151V9.78992L58.9775 11.5483V29.5599Z" fill="#8BB7C6"/>
<path fill-rule="evenodd" clip-rule="evenodd" d="M0 29.5599H5.03754V22.2808H5.09299L9.12461 29.5599H15.2235L9.7345 21.5996L14.8037 14.8591H9.29094L5.09299 21.0373H5.03754V9.78992L0 11.4612V29.5599Z" fill="#8BB7C6"/>
<path fill-rule="evenodd" clip-rule="evenodd" d="M46.9057 24.9184C46.9057 23.4927 48.2681 22.9462 49.9948 22.9462C50.7868 22.9462 51.4997 23.0016 52.1492 23.0333C52.1727 23.4724 52.1093 23.9118 51.9627 24.3263C51.8161 24.7409 51.5891 25.1224 51.2948 25.4491C51.0005 25.7758 50.6446 26.0412 50.2476 26.2301C49.8505 26.419 49.4201 26.5278 48.9809 26.5501C47.7928 26.5501 46.882 25.9402 46.882 24.9184H46.9057ZM57.1788 29.6312C56.9805 28.4778 56.8904 27.3084 56.9095 26.1382V20.5937C56.9095 16.0552 53.6462 14.4314 49.8839 14.4314C47.8685 14.3891 45.8649 14.7499 43.9909 15.4928L44.078 18.97C45.5215 18.1997 47.1393 17.815 48.775 17.8532C50.6205 17.8532 52.1254 18.3997 52.1492 20.4274C51.3635 20.2994 50.569 20.2332 49.773 20.2294C47.0483 20.2294 42.1533 20.768 42.1533 25.3144C42.1533 28.5381 44.7592 29.9955 47.6978 29.9955C48.6509 30.0355 49.5958 29.8045 50.4229 29.3293C51.2501 28.854 51.9255 28.154 52.371 27.3104H52.4264C52.4264 28.1025 52.5135 28.855 52.5373 29.6866L57.1788 29.6312Z" fill="#8BB7C6"/>
</svg>
